<?xml version="1.0"?>
<svg version="1.1" xmlns="http://www.w3.org/2000/svg" width="54" height="54" style="border: dashed 2px #aaa"><path fill="#40d61e" d="M16.55029296875,36.77783203125q-0.06103515625-0.81787109375,0.09765625-1.50146484375t0.634765625-1.11083984375t1.52587890625-0.42724609375q0.244140625,0,0.59814453125,0.06103515625t0.69580078125,0.15869140625t0.57373046875,0.29296875t0.23193359375,0.537109375l0,2.7587890625q0.9521484375-1.0986328125,2.0751953125-1.57470703125t2.5634765625-0.47607421875q1.0986328125,0,2.1728515625,0.50048828125t2.0263671875,1.33056640625t1.64794921875,1.8310546875t1.01318359375,2.001953125q0.1953125-0.9033203125,0.439453125-2.20947265625t0.72021484375-2.50244140625t1.25732421875-2.05078125t2.0751953125-0.8544921875q1.3916015625,0,2.34375,1.0009765625t1.55029296875,2.60009765625t0.9033203125,3.57666015625t0.45166015625,3.90625t0.146484375,3.60107421875l0,2.62451171875q0,0.29296875-0.2197265625,0.47607421875t-0.54931640625,0.28076171875t-0.68359375,0.1220703125t-0.54931640625,0.0244140625q-0.7568359375,0-1.37939453125-0.23193359375t-0.62255859375-1.18408203125l0-2.197265625t-0.048828125-2.84423828125t-0.1708984375-3.0517578125t-0.3173828125-2.77099609375t-0.50048828125-2.001953125t-0.74462890625-0.78125q-0.6103515625,0-0.87890625,0.68359375t-0.45166015625,1.7333984375t-0.28076171875,2.2216796875t-0.2685546875,2.2216796875t-0.54931640625,1.72119140625t-1.03759765625,0.67138671875q-0.7080078125,0-1.2451171875-0.67138671875t-1.06201171875-1.67236328125t-1.0498046875-2.1484375t-1.15966796875-2.1484375q-0.634765625-1.025390625-1.3671875-1.66015625q-0.6591796875-0.6103515625-1.4892578125-0.5859375l-0.1220703125,0q-1.0986328125,0.048828125-1.72119140625,0.79345703125t-0.9521484375,1.81884765625t-0.40283203125,2.30712890625t-0.0732421875,2.16064453125q0,0.87890625,0.146484375,2.05078125q0.09765625,0.78125,0.09765625,1.4892578125q0,0.3662109375-0.0244140625,0.7080078125q-0.0732421875,1.025390625-0.54931640625,1.72119140625t-1.77001953125,0.69580078125q-0.48828125,0-1.220703125-0.09765625t-0.9765625-0.6591796875q-0.5615234375-1.0009765625-0.8544921875-2.52685546875t-0.439453125-3.1494140625t-0.1708984375-3.22265625t-0.0244140625-2.74658203125q0-0.8056640625-0.06103515625-1.62353515625z"/><path fill="#" d=""/></svg>
