<?xml version="1.0"?>
<svg version="1.1" xmlns="http://www.w3.org/2000/svg" width="240" height="64" style="border: dashed 2px #aaa"><path fill="#40d61e" d="M16.55029296875,41.77783203125q-0.06103515625-0.81787109375,0.09765625-1.50146484375t0.634765625-1.11083984375t1.52587890625-0.42724609375q0.244140625,0,0.59814453125,0.06103515625t0.69580078125,0.15869140625t0.57373046875,0.29296875t0.23193359375,0.537109375l0,2.7587890625q0.9521484375-1.0986328125,2.0751953125-1.57470703125t2.5634765625-0.47607421875q1.0986328125,0,2.1728515625,0.50048828125t2.0263671875,1.33056640625t1.64794921875,1.8310546875t1.01318359375,2.001953125q0.1953125-0.9033203125,0.439453125-2.20947265625t0.72021484375-2.50244140625t1.25732421875-2.05078125t2.0751953125-0.8544921875q1.3916015625,0,2.34375,1.0009765625t1.55029296875,2.60009765625t0.9033203125,3.57666015625t0.45166015625,3.90625t0.146484375,3.60107421875l0,2.62451171875q0,0.29296875-0.2197265625,0.47607421875t-0.54931640625,0.28076171875t-0.68359375,0.1220703125t-0.54931640625,0.0244140625q-0.7568359375,0-1.37939453125-0.23193359375t-0.62255859375-1.18408203125l0-2.197265625t-0.048828125-2.84423828125t-0.1708984375-3.0517578125t-0.3173828125-2.77099609375t-0.50048828125-2.001953125t-0.74462890625-0.78125q-0.6103515625,0-0.87890625,0.68359375t-0.45166015625,1.7333984375t-0.28076171875,2.2216796875t-0.2685546875,2.2216796875t-0.54931640625,1.72119140625t-1.03759765625,0.67138671875q-0.7080078125,0-1.2451171875-0.67138671875t-1.06201171875-1.67236328125t-1.0498046875-2.1484375t-1.15966796875-2.1484375q-0.634765625-1.025390625-1.3671875-1.66015625q-0.6591796875-0.6103515625-1.4892578125-0.5859375l-0.1220703125,0q-1.0986328125,0.048828125-1.72119140625,0.79345703125t-0.9521484375,1.81884765625t-0.40283203125,2.30712890625t-0.0732421875,2.16064453125q0,0.87890625,0.146484375,2.05078125q0.09765625,0.78125,0.09765625,1.4892578125q0,0.3662109375-0.0244140625,0.7080078125q-0.0732421875,1.025390625-0.54931640625,1.72119140625t-1.77001953125,0.69580078125q-0.48828125,0-1.220703125-0.09765625t-0.9765625-0.6591796875q-0.5615234375-1.0009765625-0.8544921875-2.52685546875t-0.439453125-3.1494140625t-0.1708984375-3.22265625t-0.0244140625-2.74658203125q0-0.8056640625-0.06103515625-1.62353515625z M46.339599609375,45.7451171875q0-0.48828125,0.10986328125-1.2939453125t0.25634765625-1.59912109375t0.341796875-1.47705078125t0.4638671875-0.87890625q0.1953125-0.1953125,0.67138671875-0.390625t1.0009765625-0.28076171875t0.9765625,0.0732421875t0.54931640625,0.64697265625q-0.341796875,0.439453125-0.62255859375,1.50146484375t-0.42724609375,2.35595703125q-0.1220703125,1.0986328125-0.1220703125,2.2705078125l0,0.4150390625q0.0244140625,1.3671875,0.244140625,2.5146484375t0.67138671875,1.89208984375t1.25732421875,0.74462890625q1.708984375,0,3.125-1.57470703125t2.5146484375-3.84521484375t1.9287109375-4.82177734375t1.416015625-4.45556640625q0.146484375-0.5615234375,0.69580078125-0.7568359375t1.18408203125-0.13427734375t1.13525390625,0.30517578125t0.59814453125,0.5859375q-0.48828125,4.1015625-0.76904296875,8.203125t-0.28076171875,8.251953125q0,0.8056640625,0.0732421875,1.47705078125t-0.0732421875,1.1474609375t-0.64697265625,0.7568359375t-1.59912109375,0.28076171875q-0.244140625,0-0.62255859375-0.048828125t-0.78125-0.15869140625t-0.68359375-0.32958984375t-0.28076171875-0.5126953125q0-1.806640625,0.13427734375-3.7109375t0.37841796875-3.6865234375q-0.6591796875,0.9521484375-1.45263671875,1.89208984375t-1.74560546875,1.69677734375t-2.05078125,1.20849609375t-2.3681640625,0.45166015625q-1.806640625,0-2.84423828125-0.8544921875t-1.5625-2.13623046875t-0.6591796875-2.79541015625t-0.13427734375-2.9296875z M69.32958984375,48.015625l0-0.7080078125q0-0.87890625,0.048828125-1.66015625q0.048828125-1.0986328125,0.048828125-1.806640625q0-0.390625,0.048828125-0.89111328125t0.244140625-0.79345703125q0.244140625-0.244140625,0.57373046875-0.50048828125t0.72021484375-0.25634765625q1.2451171875,0,1.953125,0.28076171875t0.7568359375,1.15966796875l0.09765625,0.7568359375q0.439453125-1.0498046875,1.171875-2.60009765625t1.69677734375-2.9541015625t2.1728515625-2.392578125t2.55126953125-0.98876953125q1.2451171875,0,2.05078125,1.171875t1.28173828125,2.99072265625t0.67138671875,4.052734375t0.2685546875,4.38232421875t0.09765625,3.91845703125t0.1708984375,2.67333984375q0.09765625,0.7568359375,0.32958984375,1.59912109375t0.23193359375,1.55029296875q0,0.1953125-0.28076171875,0.37841796875t-0.59814453125,0.30517578125t-0.64697265625,0.1953125t-0.47607421875,0.0732421875q-0.9521484375,0-1.35498046875-1.42822265625t-0.50048828125-3.57666015625t-0.09765625-4.65087890625t-0.1708984375-4.65087890625t-0.69580078125-3.57666015625t-1.67236328125-1.47705078125q-1.0498046875,0-2.1728515625,1.35498046875t-1.9287109375,3.60107421875q-0.78125,2.24609375-1.07421875,5.1025390625q-0.09765625,0.9033203125-0.09765625,1.806640625q0,1.9775390625,0.4150390625,3.955078125q0.048828125,0.341796875-0.28076171875,0.5126953125t-0.81787109375,0.2685546875t-0.98876953125,0.1220703125t-0.76904296875,0.0244140625q-0.9521484375,0-1.52587890625-0.67138671875t-0.89111328125-1.72119140625t-0.42724609375-2.35595703125t-0.13427734375-2.57568359375z M91.513916015625,47.8935546875q0-1.66015625,0.45166015625-3.1982421875t1.35498046875-2.74658203125t2.25830078125-1.9287109375t3.13720703125-0.72021484375q1.0986328125,0,2.42919921875,0.32958984375t2.50244140625,0.9765625t1.953125,1.64794921875t0.78125,2.294921875q0,0.6103515625-0.20751953125,0.927734375t-0.84228515625,0.3173828125l-0.2685546875-0.048828125q0.7080078125,1.904296875,1.220703125,3.90625t1.0009765625,4.00390625q0.1953125,0.390625,0.29296875,0.69580078125t0.09765625,0.59814453125q0,0.390625-0.2197265625,0.64697265625t-0.57373046875,0.37841796875t-0.732421875,0.1708984375t-0.67138671875,0.048828125q-1.0498046875,0-1.57470703125-0.3662109375t-0.7568359375-1.0009765625t-0.28076171875-1.42822265625t-0.1953125-1.59912109375q-0.29296875,0.9521484375-0.76904296875,1.85546875t-1.123046875,1.62353515625t-1.52587890625,1.1474609375t-1.9775390625,0.42724609375q-1.611328125,0-2.7099609375-0.927734375t-1.77001953125-2.28271484375t-0.9765625-2.89306640625t-0.30517578125-2.8564453125z M94.980712890625,47.5517578125q0,0.9033203125,0.1220703125,1.904296875t0.40283203125,1.9775390625t0.72021484375,1.84326171875t1.0986328125,1.52587890625q1.1962890625-1.2939453125,1.77001953125-3.1494140625t1.025390625-3.57666015625t1.025390625-2.9541015625t1.77001953125-1.23291015625q0.7568359375,0,1.26953125,0.2685546875q-0.244140625-0.6103515625-0.8056640625-1.18408203125t-1.25732421875-1.0498046875t-1.4404296875-0.78125t-1.40380859375-0.30517578125q-0.1953125,0-0.45166015625,0.06103515625t-0.40283203125,0.01220703125q-1.0009765625,0.29296875-1.64794921875,1.01318359375t-1.0498046875,1.69677734375t-0.57373046875,2.001953125t-0.1708984375,1.9287109375z M112.6728515625,47.8935546875q0-1.66015625,0.45166015625-3.1982421875t1.35498046875-2.74658203125t2.25830078125-1.9287109375t3.13720703125-0.72021484375q1.0986328125,0,2.42919921875,0.32958984375t2.50244140625,0.9765625t1.953125,1.64794921875t0.78125,2.294921875q0,0.6103515625-0.20751953125,0.927734375t-0.84228515625,0.3173828125l-0.2685546875-0.048828125q0.7080078125,1.904296875,1.220703125,3.90625t1.0009765625,4.00390625q0.1953125,0.390625,0.29296875,0.69580078125t0.09765625,0.59814453125q0,0.390625-0.2197265625,0.64697265625t-0.57373046875,0.37841796875t-0.732421875,0.1708984375t-0.67138671875,0.048828125q-1.0498046875,0-1.57470703125-0.3662109375t-0.7568359375-1.0009765625t-0.28076171875-1.42822265625t-0.1953125-1.59912109375q-0.29296875,0.9521484375-0.76904296875,1.85546875t-1.123046875,1.62353515625t-1.52587890625,1.1474609375t-1.9775390625,0.42724609375q-1.611328125,0-2.7099609375-0.927734375t-1.77001953125-2.28271484375t-0.9765625-2.89306640625t-0.30517578125-2.8564453125z M116.1396484375,47.5517578125q0,0.9033203125,0.1220703125,1.904296875t0.40283203125,1.9775390625t0.72021484375,1.84326171875t1.0986328125,1.52587890625q1.1962890625-1.2939453125,1.77001953125-3.1494140625t1.025390625-3.57666015625t1.025390625-2.9541015625t1.77001953125-1.23291015625q0.7568359375,0,1.26953125,0.2685546875q-0.244140625-0.6103515625-0.8056640625-1.18408203125t-1.25732421875-1.0498046875t-1.4404296875-0.78125t-1.40380859375-0.30517578125q-0.1953125,0-0.45166015625,0.06103515625t-0.40283203125,0.01220703125q-1.0009765625,0.29296875-1.64794921875,1.01318359375t-1.0498046875,1.69677734375t-0.57373046875,2.001953125t-0.1708984375,1.9287109375z M133.83178710938,37.6884765625q0-0.244140625,0.37841796875-0.4150390625t0.9033203125-0.244140625t1.0009765625-0.1220703125t0.72021484375-0.048828125q0.09765625-0.6591796875,0.28076171875-1.7822265625t0.45166015625-2.40478515625t0.67138671875-2.57568359375t0.9765625-2.34375t1.35498046875-1.72119140625t1.8310546875-0.67138671875l-0.048828125,0q0.341796875-0.048828125,0.67138671875-0.0732421875t0.67138671875-0.0244140625q0.8056640625,0,1.74560546875,0.3173828125t1.74560546875,0.89111328125t1.35498046875,1.37939453125t0.54931640625,1.708984375q0,0.7080078125-0.35400390625,1.52587890625t-1.23291015625,0.81787109375q-0.29296875,0-0.59814453125-0.146484375t-0.57373046875-0.3173828125q0.09765625-0.5615234375,0.09765625-1.123046875q0-0.29296875-0.0244140625-0.5615234375q-0.0732421875-0.8544921875-0.3662109375-1.50146484375t-0.84228515625-1.025390625t-1.30615234375-0.28076171875q-1.0009765625,0.146484375-1.50146484375,1.220703125t-0.69580078125,2.55126953125t-0.244140625,3.0029296875t-0.1953125,2.47802734375q1.1474609375,0.09765625,1.94091796875,0.09765625l1.98974609375,0q0.1953125,0,0.67138671875,0.0244140625t0.927734375,0.09765625t0.8056640625,0.25634765625t0.35400390625,0.47607421875q0,0.244140625-0.1953125,0.42724609375t-0.47607421875,0.25634765625t-0.5859375,0.09765625t-0.50048828125,0.0244140625q-0.8544921875,0-1.45263671875-0.0732421875t-1.1474609375-0.13427734375t-1.1474609375-0.06103515625t-1.40380859375,0.1708984375q-0.244140625,2.7099609375-0.390625,5.37109375t-0.146484375,5.37109375q0,4.248046875,0.2685546875,8.3251953125t0.9765625,8.2763671875q0.09765625,0.390625,0.1708984375,0.89111328125t0.0732421875,0.96435546875q0,0.439453125-0.2685546875,0.72021484375t-0.67138671875,0.40283203125t-0.830078125,0.1708984375t-0.76904296875,0.048828125q-1.3916015625,0-1.953125-0.42724609375t-0.8056640625-1.72119140625q-0.6103515625-3.4423828125-0.78125-6.94580078125t-0.1708984375-7.06787109375q0-3.4912109375,0.25634765625-6.97021484375t0.64697265625-6.92138671875q-0.1953125,0-0.67138671875,0.0244140625t-0.9521484375,0t-0.830078125-0.1708984375t-0.35400390625-0.5126953125z M151.84130859375,47.8935546875q0-1.66015625,0.45166015625-3.1982421875t1.35498046875-2.74658203125t2.25830078125-1.9287109375t3.13720703125-0.72021484375q1.0986328125,0,2.42919921875,0.32958984375t2.50244140625,0.9765625t1.953125,1.64794921875t0.78125,2.294921875q0,0.6103515625-0.20751953125,0.927734375t-0.84228515625,0.3173828125l-0.2685546875-0.048828125q0.7080078125,1.904296875,1.220703125,3.90625t1.0009765625,4.00390625q0.1953125,0.390625,0.29296875,0.69580078125t0.09765625,0.59814453125q0,0.390625-0.2197265625,0.64697265625t-0.57373046875,0.37841796875t-0.732421875,0.1708984375t-0.67138671875,0.048828125q-1.0498046875,0-1.57470703125-0.3662109375t-0.7568359375-1.0009765625t-0.28076171875-1.42822265625t-0.1953125-1.59912109375q-0.29296875,0.9521484375-0.76904296875,1.85546875t-1.123046875,1.62353515625t-1.52587890625,1.1474609375t-1.9775390625,0.42724609375q-1.611328125,0-2.7099609375-0.927734375t-1.77001953125-2.28271484375t-0.9765625-2.89306640625t-0.30517578125-2.8564453125z M155.30810546875,47.5517578125q0,0.9033203125,0.1220703125,1.904296875t0.40283203125,1.9775390625t0.72021484375,1.84326171875t1.0986328125,1.52587890625q1.1962890625-1.2939453125,1.77001953125-3.1494140625t1.025390625-3.57666015625t1.025390625-2.9541015625t1.77001953125-1.23291015625q0.7568359375,0,1.26953125,0.2685546875q-0.244140625-0.6103515625-0.8056640625-1.18408203125t-1.25732421875-1.0498046875t-1.4404296875-0.78125t-1.40380859375-0.30517578125q-0.1953125,0-0.45166015625,0.06103515625t-0.40283203125,0.01220703125q-1.0009765625,0.29296875-1.64794921875,1.01318359375t-1.0498046875,1.69677734375t-0.57373046875,2.001953125t-0.1708984375,1.9287109375z"/><path fill="#" d=""/></svg>
