<svg xmlns="http://www.w3.org/2000/svg" x="0px" y="0px"
width="100" height="100"
viewBox="0 0 172 172"
style=" fill:#000000;"><g fill="none" fill-rule="nonzero" stroke="none" stroke-width="1" stroke-linecap="butt" stroke-linejoin="miter" stroke-miterlimit="10" stroke-dasharray="" stroke-dashoffset="0" font-family="none" font-weight="none" font-size="none" text-anchor="none" style="mix-blend-mode: normal"><path d="M0,172v-172h172v172z" fill="none"></path><g><path d="M139.75,162.59375h-107.5c-7.39062,0 -13.4375,-6.04687 -13.4375,-13.4375v-59.125c0,-7.39062 6.04688,-13.4375 13.4375,-13.4375h107.5c7.39063,0 13.4375,6.04688 13.4375,13.4375v59.125c0,7.39063 -6.04687,13.4375 -13.4375,13.4375" fill="#1abc9c"></path><path d="M86,139.75c-11.15313,0 -20.15625,-9.00313 -20.15625,-20.15625c0,-11.15313 9.00312,-20.15625 20.15625,-20.15625c11.15313,0 20.15625,9.00312 20.15625,20.15625c0,11.15312 -9.00312,20.15625 -20.15625,20.15625M126.3125,90.03125h-80.625c0,7.39063 -6.04687,13.4375 -13.4375,13.4375v32.25c7.39063,0 13.4375,6.04688 13.4375,13.4375h80.625c0,-7.39062 6.04688,-13.4375 13.4375,-13.4375v-32.25c-7.39062,0 -13.4375,-6.04687 -13.4375,-13.4375" fill="#2ecc71"></path><path d="M86,99.4375c-11.15313,0 -20.15625,9.00312 -20.15625,20.15625c0,11.15312 9.00312,20.15625 20.15625,20.15625c11.15313,0 20.15625,-9.00313 20.15625,-20.15625c0,-11.15313 -9.00312,-20.15625 -20.15625,-20.15625" fill="#cccccc"></path><path d="M139.75,166.625h-107.5c-9.675,0 -17.46875,-7.79375 -17.46875,-17.46875v-59.125c0,-9.675 7.79375,-17.46875 17.46875,-17.46875h107.5c9.675,0 17.46875,7.79375 17.46875,17.46875v59.125c0,9.675 -7.79375,17.46875 -17.46875,17.46875zM32.25,80.625c-5.24062,0 -9.40625,4.16563 -9.40625,9.40625v59.125c0,5.24062 4.16563,9.40625 9.40625,9.40625h107.5c5.24062,0 9.40625,-4.16563 9.40625,-9.40625v-59.125c0,-5.24062 -4.16563,-9.40625 -9.40625,-9.40625zM153.725,8.73438c0,-0.13438 0,-0.13438 0,-0.26875c0,-0.13438 -0.13437,-0.26875 -0.13437,-0.5375c0,-0.13437 0,-0.13437 -0.13438,-0.26875c-0.13437,-0.26875 -0.13437,-0.40312 -0.26875,-0.67187v0c-0.13438,-0.13437 -0.26875,-0.26875 -0.40313,-0.5375l-0.13437,-0.13437c-0.13438,-0.13437 -0.26875,-0.26875 -0.40312,-0.26875l-0.13438,-0.13437c-0.13437,-0.13437 -0.26875,-0.13437 -0.5375,-0.26875h-0.13438v0c-0.26875,-0.13437 -0.40312,-0.13437 -0.67187,-0.26875h-0.13437c-0.13438,0 -0.40313,0 -0.5375,0h-0.13437h-13.4375c-2.28438,0 -4.03125,1.74687 -4.03125,4.03125c0,2.28438 1.74687,4.03125 4.03125,4.03125h3.7625l-37.49063,37.35625l-30.77187,-30.77187c-1.6125,-1.6125 -4.16563,-1.6125 -5.64375,0l-20.15625,20.15625c-1.6125,1.6125 -1.6125,4.16562 0,5.64375c0.80625,0.80625 1.88125,1.20938 2.82187,1.20938c0.94063,0 2.01563,-0.40312 2.82187,-1.20938l17.33438,-17.33437l30.77188,30.77187c0.80625,0.80625 1.88125,1.20938 2.82187,1.20938c0.94062,0 2.01563,-0.40312 2.82187,-1.20938l40.17813,-40.17812v3.7625c0,2.28438 1.74687,4.03125 4.03125,4.03125c2.28438,0 4.03125,-1.74687 4.03125,-4.03125v-13.4375c0,-0.26875 0,-0.5375 -0.13438,-0.67187zM39.37188,54.825c-0.13438,-0.26875 -0.26875,-0.40312 -0.40313,-0.67187c-0.13437,-0.26875 -0.26875,-0.40312 -0.5375,-0.5375c-0.13437,-0.13438 -0.40312,-0.40313 -0.5375,-0.5375c-0.26875,-0.13437 -0.40313,-0.26875 -0.67187,-0.40312c-0.26875,-0.13437 -0.5375,-0.13438 -0.80625,-0.26875c-1.34375,-0.26875 -2.6875,0.13437 -3.62812,1.075c-0.13437,0.13438 -0.40313,0.40312 -0.5375,0.5375c-0.13438,0.26875 -0.26875,0.40312 -0.40313,0.67188c-0.13438,0.26875 -0.13438,0.5375 -0.26875,0.80625c0,0.26875 -0.13438,0.5375 -0.13438,0.80625c0,0.26875 0,0.5375 0.13438,0.80625c0,0.26875 0.13438,0.5375 0.26875,0.80625c0.13438,0.26875 0.26875,0.5375 0.40313,0.67188c0.13437,0.26875 0.26875,0.40313 0.5375,0.5375c0.80625,0.80625 1.74688,1.20938 2.82188,1.20938c0.26875,0 0.5375,0 0.80625,-0.13438c0.26875,0 0.5375,-0.13437 0.80625,-0.26875c0.26875,-0.13437 0.5375,-0.26875 0.67188,-0.40312c0.26875,-0.13437 0.40312,-0.26875 0.5375,-0.5375c0.13438,-0.13438 0.40313,-0.40313 0.5375,-0.5375c0.13437,-0.26875 0.26875,-0.40312 0.40312,-0.67187c0.13438,-0.26875 0.13438,-0.5375 0.26875,-0.80625c0,-0.26875 0.13437,-0.5375 0.13437,-0.80625c0,-0.26875 0,-0.5375 -0.13437,-0.80625c-0.13438,0 -0.26875,-0.26875 -0.26875,-0.5375z" fill="#2ecc71"></path></g></g></svg>